<mxfile host="app.diagrams.net" modified="2024-01-17T14:37:32.963Z" agent="Mozilla/5.0 (Windows NT 10.0; Win64; x64) AppleWebKit/537.36 (KHTML, like Gecko) Chrome/120.0.0.0 Safari/537.36" etag="u4SVIqpDKJr9sfMqmRFv" version="22.1.20" type="github">
  <diagram name="Page-1" id="o2Oewja4m09LuV-sOPrQ">
    <mxGraphModel dx="1036" dy="434" grid="1" gridSize="10" guides="1" tooltips="1" connect="1" arrows="1" fold="1" page="1" pageScale="1" pageWidth="850" pageHeight="1100" math="0" shadow="0">
      <root>
        <mxCell id="0" />
        <mxCell id="1" parent="0" />
        <mxCell id="YOenHZwDBqFvzsbJHhOg-16" style="edgeStyle=orthogonalEdgeStyle;rounded=0;orthogonalLoop=1;jettySize=auto;html=1;exitX=1;exitY=0.5;exitDx=0;exitDy=0;curved=1;" edge="1" parent="1" source="YOenHZwDBqFvzsbJHhOg-1" target="YOenHZwDBqFvzsbJHhOg-5">
          <mxGeometry relative="1" as="geometry" />
        </mxCell>
        <mxCell id="YOenHZwDBqFvzsbJHhOg-1" value="" style="ellipse;whiteSpace=wrap;html=1;" vertex="1" parent="1">
          <mxGeometry x="360" y="80" width="120" height="80" as="geometry" />
        </mxCell>
        <mxCell id="YOenHZwDBqFvzsbJHhOg-19" style="edgeStyle=orthogonalEdgeStyle;rounded=0;orthogonalLoop=1;jettySize=auto;html=1;exitX=0.5;exitY=0;exitDx=0;exitDy=0;entryX=0;entryY=0.5;entryDx=0;entryDy=0;curved=1;" edge="1" parent="1" source="YOenHZwDBqFvzsbJHhOg-3" target="YOenHZwDBqFvzsbJHhOg-1">
          <mxGeometry relative="1" as="geometry" />
        </mxCell>
        <mxCell id="YOenHZwDBqFvzsbJHhOg-3" value="" style="ellipse;whiteSpace=wrap;html=1;" vertex="1" parent="1">
          <mxGeometry x="200" y="200" width="120" height="80" as="geometry" />
        </mxCell>
        <mxCell id="YOenHZwDBqFvzsbJHhOg-18" style="edgeStyle=orthogonalEdgeStyle;rounded=0;orthogonalLoop=1;jettySize=auto;html=1;exitX=0;exitY=0.5;exitDx=0;exitDy=0;entryX=0.5;entryY=1;entryDx=0;entryDy=0;curved=1;" edge="1" parent="1" source="YOenHZwDBqFvzsbJHhOg-4" target="YOenHZwDBqFvzsbJHhOg-3">
          <mxGeometry relative="1" as="geometry" />
        </mxCell>
        <mxCell id="YOenHZwDBqFvzsbJHhOg-4" value="" style="ellipse;whiteSpace=wrap;html=1;" vertex="1" parent="1">
          <mxGeometry x="360" y="320" width="120" height="80" as="geometry" />
        </mxCell>
        <mxCell id="YOenHZwDBqFvzsbJHhOg-17" style="edgeStyle=orthogonalEdgeStyle;rounded=0;orthogonalLoop=1;jettySize=auto;html=1;exitX=0.5;exitY=1;exitDx=0;exitDy=0;entryX=1;entryY=0.5;entryDx=0;entryDy=0;curved=1;" edge="1" parent="1" source="YOenHZwDBqFvzsbJHhOg-5" target="YOenHZwDBqFvzsbJHhOg-4">
          <mxGeometry relative="1" as="geometry" />
        </mxCell>
        <mxCell id="YOenHZwDBqFvzsbJHhOg-5" value="" style="ellipse;whiteSpace=wrap;html=1;" vertex="1" parent="1">
          <mxGeometry x="520" y="200" width="120" height="80" as="geometry" />
        </mxCell>
        <mxCell id="YOenHZwDBqFvzsbJHhOg-6" value="Layoff in Coal Industry" style="text;html=1;strokeColor=none;fillColor=none;align=center;verticalAlign=middle;whiteSpace=wrap;rounded=0;" vertex="1" parent="1">
          <mxGeometry x="370" y="105" width="100" height="30" as="geometry" />
        </mxCell>
        <mxCell id="YOenHZwDBqFvzsbJHhOg-8" value="Impact on Coal Industry" style="text;html=1;strokeColor=none;fillColor=none;align=center;verticalAlign=middle;whiteSpace=wrap;rounded=0;" vertex="1" parent="1">
          <mxGeometry x="540" y="225" width="80" height="30" as="geometry" />
        </mxCell>
        <mxCell id="YOenHZwDBqFvzsbJHhOg-9" value="Switch to Natural Gas and Other Alternatives" style="text;html=1;strokeColor=none;fillColor=none;align=center;verticalAlign=middle;whiteSpace=wrap;rounded=0;" vertex="1" parent="1">
          <mxGeometry x="212.5" y="225" width="95" height="30" as="geometry" />
        </mxCell>
        <mxCell id="YOenHZwDBqFvzsbJHhOg-20" value="&lt;font style=&quot;font-size: 31px;&quot;&gt;R&lt;/font&gt;" style="text;html=1;strokeColor=none;fillColor=none;align=center;verticalAlign=middle;whiteSpace=wrap;rounded=0;fontSize=31;" vertex="1" parent="1">
          <mxGeometry x="390" y="225" width="60" height="30" as="geometry" />
        </mxCell>
        <mxCell id="YOenHZwDBqFvzsbJHhOg-21" value="" style="shape=mxgraph.signs.healthcare.first_aid;html=1;pointerEvents=1;fillColor=#000000;strokeColor=none;verticalLabelPosition=bottom;verticalAlign=top;align=center;" vertex="1" parent="1">
          <mxGeometry x="560" y="120.5" width="20" height="19" as="geometry" />
        </mxCell>
        <mxCell id="YOenHZwDBqFvzsbJHhOg-22" value="" style="shape=mxgraph.signs.healthcare.first_aid;html=1;pointerEvents=1;fillColor=#000000;strokeColor=none;verticalLabelPosition=bottom;verticalAlign=top;align=center;" vertex="1" parent="1">
          <mxGeometry x="260" y="340" width="20" height="19" as="geometry" />
        </mxCell>
        <mxCell id="YOenHZwDBqFvzsbJHhOg-23" value="" style="shape=mxgraph.signs.healthcare.first_aid;html=1;pointerEvents=1;fillColor=#000000;strokeColor=none;verticalLabelPosition=bottom;verticalAlign=top;align=center;" vertex="1" parent="1">
          <mxGeometry x="260" y="120.5" width="20" height="19" as="geometry" />
        </mxCell>
        <mxCell id="YOenHZwDBqFvzsbJHhOg-24" value="" style="shape=mxgraph.signs.healthcare.first_aid;html=1;pointerEvents=1;fillColor=#000000;strokeColor=none;verticalLabelPosition=bottom;verticalAlign=top;align=center;" vertex="1" parent="1">
          <mxGeometry x="560" y="340" width="20" height="19" as="geometry" />
        </mxCell>
        <mxCell id="YOenHZwDBqFvzsbJHhOg-27" value="Due to Layoff in employees there will be an increase impact on the Coal Industry" style="text;html=1;strokeColor=none;fillColor=none;align=center;verticalAlign=middle;whiteSpace=wrap;rounded=0;" vertex="1" parent="1">
          <mxGeometry x="600" y="109.5" width="80" height="30" as="geometry" />
        </mxCell>
      </root>
    </mxGraphModel>
  </diagram>
</mxfile>
